<svg width="34" height="34" viewBox="0 0 34 34" fill="none" xmlns="http://www.w3.org/2000/svg">
<path d="M32.8064 19.4815L30.7886 17.4637C30.4849 17.1595 30.2322 16.8083 30.0402 16.4237L28.1202 12.5837C28.0679 12.4795 27.9916 12.3892 27.8976 12.3202C27.8036 12.2513 27.6946 12.2056 27.5795 12.187C27.4644 12.1685 27.3465 12.1775 27.2356 12.2134C27.1247 12.2493 27.0239 12.311 26.9415 12.3935C26.756 12.5788 26.5244 12.7111 26.2706 12.7768C26.0167 12.8424 25.75 12.839 25.4979 12.7669L23.2348 12.1215C22.8727 12.0197 22.4862 12.0503 22.1446 12.2076C21.803 12.365 21.5286 12.6389 21.3707 12.9803C21.2127 13.3216 21.1816 13.7081 21.2827 14.0704C21.3839 14.4326 21.6109 14.747 21.9228 14.9571L22.9664 15.6504C24.0153 16.3526 24.1646 17.8371 23.2722 18.7295L22.9166 19.0851C22.5397 19.462 22.3299 19.9704 22.3299 20.5002V21.2291C22.3299 21.9562 22.1344 22.6673 21.7611 23.2877L19.4233 27.1829C19.09 27.7387 18.6185 28.1987 18.0545 28.518C17.4906 28.8374 16.8536 29.0052 16.2055 29.0051C15.7081 29.0051 15.231 28.8075 14.8793 28.4557C14.5276 28.104 14.3299 27.6269 14.3299 27.1295V25.046C14.3299 23.4104 13.3344 21.9402 11.8162 21.3322L10.6517 20.8682C9.80451 20.529 9.09873 19.9104 8.65151 19.1149C8.20429 18.3194 8.04253 17.3949 8.19306 16.4949L8.20551 16.4202C8.28815 15.9256 8.46304 15.451 8.72106 15.0211L8.88106 14.7544C9.30563 14.0474 9.93834 13.4889 10.6926 13.1554C11.4468 12.8219 12.2857 12.7296 13.0944 12.8913L15.1886 13.3109C15.6814 13.4092 16.1932 13.3183 16.6221 13.0564C17.051 12.7946 17.3656 12.3808 17.5033 11.8975L17.8731 10.5997C18.0012 10.1514 17.9686 9.67239 17.781 9.24551C17.5933 8.81864 17.2624 8.47075 16.8455 8.26197L15.6633 7.67175L15.5015 7.83352C15.1301 8.20496 14.6891 8.49959 14.2038 8.70061C13.7185 8.90163 13.1983 9.00509 12.6731 9.00508H12.3531C11.9104 9.00508 11.4873 9.18286 11.1762 9.49219C10.891 9.7799 10.5103 9.95306 10.1061 9.97888C9.70184 10.0047 9.30217 9.88139 8.98276 9.6323C8.66334 9.38321 8.44636 9.02563 8.3729 8.62729C8.29944 8.22895 8.37461 7.8175 8.58417 7.47086L11.0926 3.28775C11.3426 2.87194 11.5149 2.41412 11.6011 1.93664M32.8064 19.4815C33.237 16.7387 32.9465 13.9309 31.9633 11.3344C30.9802 8.7378 29.3382 6.44176 27.199 4.67194C25.0597 2.90213 22.4967 1.71945 19.7619 1.24018C17.0271 0.760914 14.2147 1.00154 11.6011 1.93841C8.94208 2.89155 6.58281 4.53161 4.76302 6.69194C2.94322 8.85227 1.72777 11.4558 1.24018 14.2381C0.752596 17.0203 1.01025 19.8821 1.98696 22.5325C2.96367 25.1829 4.62463 27.5275 6.80103 29.3281C8.97744 31.1286 11.5917 32.3209 14.3782 32.7837C17.1647 33.2466 20.024 32.9635 22.6656 31.9633C25.3073 30.9631 27.637 29.2814 29.4182 27.0891C31.1993 24.8968 32.3683 22.272 32.8064 19.4815Z" stroke="#927DE3" stroke-width="2" stroke-linecap="round" stroke-linejoin="round"/>
</svg>
