<svg width="30" height="33" viewBox="0 0 30 33" fill="none" xmlns="http://www.w3.org/2000/svg">
<path d="M8.82613 3.14347C10.7859 1.85538 13.0602 1.11926 15.4071 1.01331C17.754 0.907362 20.086 1.43556 22.1552 2.54176C24.2243 3.64796 25.9534 5.29085 27.1586 7.29582C28.3638 9.30079 29.0002 11.5929 29 13.9287C29 18.9619 28.036 23.7693 26.2815 28.1803M5.14712 6.79944C3.73855 8.91304 2.98943 11.3933 2.99381 13.9287C2.99789 16.3643 2.30649 18.7511 1 20.8114M4.44842 26.9461C7.70271 23.3833 9.50244 18.7413 9.49536 13.9287C9.49536 12.2144 10.1803 10.5702 11.3996 9.35802C12.6189 8.14581 14.2726 7.46479 15.9969 7.46479C17.7212 7.46479 19.3749 8.14581 20.5942 9.35802C21.8135 10.5702 22.4985 12.2144 22.4985 13.9287C22.4985 14.8371 22.462 15.7369 22.3875 16.6263M15.9969 13.9287C16.0066 20.0928 13.792 26.056 9.75542 30.7348M21.2554 22.8127C20.3165 26.0822 18.8624 29.1831 16.947 32" stroke="#927DE3" stroke-width="2" stroke-linecap="round" stroke-linejoin="round"/>
</svg>
