<svg width="38" height="36" viewBox="0 0 38 36" fill="none" xmlns="http://www.w3.org/2000/svg">
<path d="M15.4339 25.1881C14.9722 24.0637 14.1293 23.1328 13.0494 22.555C11.9695 21.9771 10.7199 21.7882 9.51452 22.0207C8.30916 22.2531 7.2231 22.8923 6.44235 23.829C5.66159 24.7656 5.23473 25.9413 5.23487 27.1547C5.23487 27.6918 5.12321 28.2233 4.90681 28.716C4.69041 29.2088 4.37388 29.6524 3.97684 30.0194C3.5798 30.3863 3.11071 30.6688 2.59865 30.8493C2.08659 31.0298 1.54246 31.1044 1 31.0686C1.87247 32.5661 3.2209 33.7371 4.83595 34.3999C6.45101 35.0627 8.24235 35.1801 9.93187 34.734C11.6214 34.2878 13.1146 33.3031 14.1797 31.9326C15.2447 30.5621 15.8221 28.8825 15.8221 27.1547C15.8221 26.459 15.6844 25.7948 15.4339 25.1881ZM15.4339 25.1881C17.5319 24.4818 19.5385 23.5338 21.4121 22.3638M12.5136 22.3202C13.2286 20.2428 14.1892 18.2561 15.3756 16.4013M21.4103 22.3638C24.7565 20.2749 27.6206 17.514 29.8165 14.2604L36.6559 4.12423C36.9179 3.73818 37.0361 3.27423 36.9904 2.81161C36.9446 2.349 36.7378 1.91641 36.4051 1.58774C36.0725 1.25907 35.6347 1.05469 35.1664 1.00951C34.6982 0.964324 34.2286 1.08114 33.8379 1.34001L23.5789 8.0992C20.2855 10.2682 17.4905 13.0974 15.3756 16.4031C18.0611 17.5894 20.2096 19.7122 21.4103 22.3655" stroke="#927DE3" stroke-width="2" stroke-linecap="round" stroke-linejoin="round"/>
</svg>
