<svg width="110" height="26" viewBox="0 0 110 26" fill="none" xmlns="http://www.w3.org/2000/svg">
<g clip-path="url(#clip0_118_29)">
<path fill-rule="evenodd" clip-rule="evenodd" d="M9.4186 18C8.58595 18 7.7874 17.6708 7.19862 17.0847C6.60984 16.4987 6.27907 15.7038 6.27907 14.875V0.5H0V14.875C0 20.0525 4.21702 24.25 9.4186 24.25H16.3256V18H9.4186ZM28.2558 6.75C27.5137 6.75 26.7788 6.89549 26.0932 7.17818C25.4076 7.46086 24.7846 7.87519 24.2598 8.39752C23.7351 8.91985 23.3188 9.53995 23.0348 10.2224C22.7508 10.9049 22.6047 11.6363 22.6047 12.375C22.6047 13.1137 22.7508 13.8451 23.0348 14.5276C23.3188 15.2101 23.7351 15.8301 24.2598 16.3525C24.7846 16.8748 25.4076 17.2891 26.0932 17.5718C26.7788 17.8545 27.5137 18 28.2558 18C29.7546 18 31.192 17.4074 32.2518 16.3525C33.3116 15.2976 33.907 13.8668 33.907 12.375C33.907 10.8832 33.3116 9.45242 32.2518 8.39752C31.192 7.34263 29.7546 6.75 28.2558 6.75ZM16.3256 12.375C16.3256 5.81687 21.6672 0.5 28.2558 0.5C34.8444 0.5 40.186 5.81687 40.186 12.375C40.186 18.9331 34.8444 24.25 28.2558 24.25C21.6672 24.25 16.3256 18.9331 16.3256 12.375ZM96.0698 6.75C94.571 6.75 93.1336 7.34263 92.0738 8.39752C91.014 9.45242 90.4186 10.8832 90.4186 12.375C90.4186 13.8668 91.014 15.2976 92.0738 16.3525C93.1336 17.4074 94.571 18 96.0698 18C97.5686 18 99.006 17.4074 100.066 16.3525C101.126 15.2976 101.721 13.8668 101.721 12.375C101.721 10.8832 101.126 9.45242 100.066 8.39752C99.006 7.34263 97.5686 6.75 96.0698 6.75ZM84.1395 12.375C84.1395 5.81687 89.4811 0.5 96.0698 0.5C102.658 0.5 108 5.81687 108 12.375C108 18.9331 102.658 24.25 96.0698 24.25C89.4811 24.25 84.1395 18.9331 84.1395 12.375ZM53.3721 0.5C46.7835 0.5 41.4419 5.81687 41.4419 12.375C41.4419 18.9331 46.7835 24.25 53.3721 24.25H70.9535C72.1898 24.25 73.3822 24.0625 74.5037 23.715L77.8605 25.5L81.4822 18.7475C82.4023 17.0285 82.8835 15.1108 82.8837 13.1631V12.375C82.8837 5.81687 77.5421 0.5 70.9535 0.5H53.3721ZM76.6047 12.375C76.6047 10.8832 76.0093 9.45242 74.9495 8.39752C73.8897 7.34263 72.4523 6.75 70.9535 6.75H53.3721C52.63 6.75 51.8951 6.89549 51.2095 7.17818C50.5239 7.46086 49.9009 7.87519 49.3761 8.39752C48.8514 8.91985 48.4351 9.53995 48.1511 10.2224C47.8671 10.9049 47.7209 11.6363 47.7209 12.375C47.7209 13.1137 47.8671 13.8451 48.1511 14.5276C48.4351 15.2101 48.8514 15.8301 49.3761 16.3525C49.9009 16.8748 50.5239 17.2891 51.2095 17.5718C51.8951 17.8545 52.63 18 53.3721 18H70.9535C72.4447 18 73.8755 17.4134 74.934 16.368C75.9925 15.3225 76.5931 13.903 76.6047 12.4187V12.375Z" fill="#E9E7E5"/>
<path d="M110 2C110 2.39782 109.842 2.77936 109.561 3.06066C109.279 3.34196 108.898 3.5 108.5 3.5C108.102 3.5 107.721 3.34196 107.439 3.06066C107.158 2.77936 107 2.39782 107 2C107 1.60218 107.158 1.22064 107.439 0.93934C107.721 0.658035 108.102 0.5 108.5 0.5C108.898 0.5 109.279 0.658035 109.561 0.93934C109.842 1.22064 110 1.60218 110 2Z" fill="#E9E7E5"/>
</g>
<defs>
<clipPath id="clip0_118_29">
<rect width="110" height="25" fill="white" transform="translate(0 0.5)"/>
</clipPath>
</defs>
</svg>
